<svg width="28" height="28" viewBox="0 0 28 28" fill="none" xmlns="http://www.w3.org/2000/svg">
  <circle cx="14" cy="14" r="14" fill="#F7931A"/>
  <path d="M19.5 12.5c.2-1.3-.8-2-2.2-2.5l.4-1.8-1.1-.3-.4 1.7c-.3-.1-.6-.2-.9-.3l.4-1.7-1.1-.3-.4 1.8c-.2-.1-.5-.1-.7-.2v-.1l-1.4-.4-.3 1.2s.8.2.8.2c.4.1.5.2.6.4l-.6 2.4c0 .1-.1.1-.2.1l-.2-.1-.5 2-.8-.2.3-1.3c0-.1-.1-.1-.2-.1l-1.4-.4-.9 3.5c0 .1.1.2.2.2l1.1.3-.4 1.8 1.1.3.4-1.8c.3.1.6.2.9.3l-.4 1.8 1.1.3.4-1.8c1.9.4 3.3.2 3.9-1.5.5-1.3 0-2-.9-2.5.6-.4 1.1-1 1.2-1.8zm-2.9 3.8c-.3 1.3-2.5.6-3.2.4l.6-2.4c.7.2 2.8.5 2.6 2zm.3-3.9c-.3 1.2-2.1.6-2.7.4l.5-2.2c.6.2 2.1.4 2.2 1.8z" fill="white"/>
</svg> 